M48
; DRILL file {KiCad 9.0.2+dfsg-1} date 2026-02-04T14:43:34-0300
; FORMAT={-:-/ absolute / metric / decimal}
; #@! TF.CreationDate,2026-02-04T14:43:34-03:00
; #@! TF.GenerationSoftware,Kicad,Pcbnew,9.0.2+dfsg-1
; #@! TF.FileFunction,Plated,1,2,PTH
FMAT,2
METRIC
; #@! TA.AperFunction,Plated,PTH,ViaDrill
T1C0.700
; #@! TA.AperFunction,Plated,PTH,ComponentDrill
T2C0.800
; #@! TA.AperFunction,Plated,PTH,ComponentDrill
T3C0.900
; #@! TA.AperFunction,Plated,PTH,ComponentDrill
T4C0.950
; #@! TA.AperFunction,Plated,PTH,ComponentDrill
T5C1.000
; #@! TA.AperFunction,Plated,PTH,ComponentDrill
T6C1.090
; #@! TA.AperFunction,Plated,PTH,ComponentDrill
T7C1.100
; #@! TA.AperFunction,Plated,PTH,ComponentDrill
T8C1.570
%
G90
G05
T1
X97.79Y-52.07
X97.79Y-80.01
X97.79Y-88.9
X105.41Y-88.9
X113.03Y-80.01
X118.11Y-52.07
X132.08Y-38.1
X132.08Y-46.99
T2
X107.95Y-109.22
X107.95Y-119.38
X111.76Y-109.22
X111.76Y-119.38
X115.57Y-109.22
X115.57Y-119.38
X147.32Y-52.11
X147.32Y-54.61
X147.32Y-59.69
X147.32Y-69.85
X147.32Y-72.39
X147.32Y-82.55
X151.13Y-74.97
X151.13Y-79.97
X156.21Y-49.57
X156.21Y-52.07
X166.37Y-49.57
X166.37Y-52.07
T3
X100.33Y-106.68
X100.33Y-114.3
X100.33Y-121.92
X102.87Y-106.68
X102.87Y-114.3
X102.87Y-121.92
T4
X107.95Y-59.69
X107.95Y-67.31
X107.95Y-74.93
X108.03Y-93.98
X110.45Y-59.69
X110.45Y-67.31
X110.45Y-74.93
X110.53Y-93.98
X112.95Y-59.69
X112.95Y-67.31
X112.95Y-74.93
X113.03Y-93.98
X115.45Y-59.69
X115.45Y-67.31
X115.45Y-74.93
X115.53Y-93.98
T5
X105.41Y-49.53
X107.95Y-49.53
X110.49Y-49.53
X113.03Y-49.53
X115.57Y-49.53
X118.11Y-49.53
X124.46Y-62.23
X124.46Y-64.77
X124.46Y-67.31
X124.46Y-69.85
X124.46Y-72.39
X124.46Y-74.93
X124.46Y-77.47
X124.46Y-80.01
X124.46Y-82.55
X124.46Y-85.09
X124.46Y-87.63
X124.46Y-90.17
X124.46Y-92.71
X124.46Y-95.25
X124.46Y-97.79
X124.46Y-100.33
X124.46Y-102.87
X124.46Y-105.41
X124.46Y-107.95
X124.46Y-110.49
X140.97Y-121.92
X140.97Y-124.46
X140.97Y-127.0
X142.24Y-62.23
X142.24Y-64.77
X142.24Y-67.31
X142.24Y-69.85
X142.24Y-72.39
X142.24Y-74.93
X142.24Y-77.47
X142.24Y-80.01
X142.24Y-82.55
X142.24Y-85.09
X142.24Y-87.63
X142.24Y-90.17
X142.24Y-92.71
X142.24Y-95.25
X142.24Y-97.79
X142.24Y-100.33
X142.24Y-102.87
X142.24Y-105.41
X142.24Y-107.95
X142.24Y-110.49
X146.558Y-40.64
X146.558Y-43.18
X146.558Y-45.72
X148.73Y-87.63
X148.73Y-127.13
X154.54Y-58.6
X154.54Y-81.1
X158.04Y-58.6
X164.54Y-58.6
X166.23Y-87.63
X166.23Y-127.13
X168.04Y-58.6
X168.04Y-81.1
X172.72Y-40.64
X177.292Y-125.0
X177.292Y-127.54
X177.292Y-130.08
T6
X125.73Y-125.72
X126.52Y-123.18
X130.02Y-123.18
X130.81Y-125.72
T7
X108.51Y-82.84
X108.51Y-87.34
X108.51Y-100.91
X108.51Y-105.41
X115.01Y-82.84
X115.01Y-87.34
X115.01Y-100.91
X115.01Y-105.41
X128.27Y-116.84
X138.43Y-116.84
X154.94Y-43.18
X165.1Y-43.18
T8
X182.88Y-41.275
X182.88Y-45.845
X182.88Y-118.745
X182.88Y-123.825
M30
